<svg xmlns="http://www.w3.org/2000/svg" width="172.898" height="122.232" viewBox="0 0 172.898 122.232"><defs><style>.a{fill:#ffc154;}.b{fill:#ff9e55;}.c{fill:#a7e070;}.d{fill:#75b75a;}.e{fill:#fff;}.f{fill:#d6e6fd;}.g{fill:#bdd3f4;}.h{fill:#ffa67a;}.i{fill:#ef946c;}.j{fill:#4278c6;}.k{fill:#5295fe;}.l{fill:#ffb692;}.m{fill:#d88d87;}.n{fill:#6d86aa;}.o{fill:#323244;}.p{fill:#34344f;}.q,.v{fill:none;}.q{stroke:#34344f;stroke-linecap:round;stroke-linejoin:round;stroke-width:2.007px;}.r{fill:#ff9292;}.s{fill:#ffabab;}.t{fill:#49496b;}.u{fill:#ffac52;}.v{stroke:#6d86aa;stroke-miterlimit:10;stroke-width:2px;}.w{fill:#ea5589;}.x{fill:#a0b8e8;}.y{fill:#eff6ff;}.z{fill:#8ba6d1;}</style></defs><g transform="translate(-65.421 -55.884)"><g transform="translate(74.36 147.104)"><path class="a" d="M122.716,396.447h-9.172l-1.859-9.541h12.89Z" transform="translate(-106.058 -373.906)"/><path class="b" d="M112.526,391.223l11.512-1.562.537-2.755h-12.89Z" transform="translate(-106.058 -373.906)"/><path class="c" d="M126.512,357.9c5.525-7.661.071-12.222,0-12.28v0h0v0c-.071.058-5.525,4.619,0,12.28v0h0Z" transform="translate(-114.523 -345.615)"/><g transform="translate(0 3.691)"><g transform="translate(11.578)"><path class="d" d="M130.588,366.877c.068-10.482,6.577-11.235,11.989-7.467Z" transform="translate(-130.588 -357.338)"/><path class="c" d="M133.417,375.172c0-6.714,7.6-8.975,11.509-1.3Z" transform="translate(-132.526 -365.359)"/></g><path class="d" d="M107.108,366.877c-.069-10.482-6.577-11.235-11.989-7.467Z" transform="translate(-94.708 -357.338)"/><path class="c" d="M105.323,375.172c0-6.714-7.6-8.975-11.509-1.3Z" transform="translate(-93.814 -365.359)"/></g><rect class="a" width="14.667" height="2.19" transform="translate(4.614 12.615)"/></g><g transform="translate(80.177 75.208)"><path class="e" d="M172.379,150.559,166.1,146.1V119.615a2.353,2.353,0,0,0-2.353-2.353h-49.1a2.353,2.353,0,0,0-2.353,2.353v42.709a2.353,2.353,0,0,0,2.353,2.353h49.1a2.353,2.353,0,0,0,2.353-2.353v-7.3Z" transform="translate(-112.289 -117.262)"/><g transform="translate(4.321 5.098)"><circle class="c" cx="3.196" cy="3.196" r="3.196" transform="translate(0 6.22) rotate(-76.659)"/><g transform="translate(8.731 1.739)"><path class="f" d="M188.685,147.015h-34.1a.843.843,0,0,0,0,1.687h34.1a.843.843,0,0,0,0-1.687Z" transform="translate(-153.746 -144.484)"/><path class="g" d="M154.589,140.664h15.516a.844.844,0,0,0,0-1.687H154.589a.844.844,0,0,0,0,1.687Z" transform="translate(-153.746 -138.977)"/></g></g><g transform="translate(4.972 15.427)"><path class="a" d="M247.094,169.459a3.2,3.2,0,1,0,3.2-3.2A3.2,3.2,0,0,0,247.094,169.459Z" transform="translate(-209.624 -166.262)"/><g transform="translate(0 1.088)"><path class="f" d="M163.021,177.755h-34.1a.843.843,0,0,0,0,1.687h34.1a.843.843,0,1,0,0-1.687Z" transform="translate(-128.082 -175.224)"/><path class="g" d="M128.925,171.4h15.516a.844.844,0,0,0,0-1.687H128.925a.844.844,0,0,0,0,1.687Z" transform="translate(-128.082 -169.717)"/></g></g><g transform="translate(4.972 25.283)"><circle class="c" cx="3.196" cy="3.196" r="3.196"/><g transform="translate(8.08 1.088)"><path class="f" d="M188.685,209.059h-34.1a.843.843,0,0,0,0,1.687h34.1a.843.843,0,0,0,0-1.687Z" transform="translate(-153.746 -206.528)"/><path class="g" d="M154.589,202.708h15.516a.844.844,0,0,0,0-1.687H154.589a.844.844,0,0,0,0,1.687Z" transform="translate(-153.746 -201.021)"/></g></g><g transform="translate(4.972 34.962)"><circle class="a" cx="3.197" cy="3.197" r="3.197" transform="translate(37.47)"/><g transform="translate(0 1.088)"><path class="f" d="M163.021,239.8h-34.1a.843.843,0,0,0,0,1.687h34.1a.843.843,0,1,0,0-1.687Z" transform="translate(-128.082 -237.268)"/><path class="g" d="M128.925,233.448h15.516a.844.844,0,0,0,0-1.687H128.925a.844.844,0,0,0,0,1.687Z" transform="translate(-128.082 -231.761)"/></g></g></g><g transform="translate(98.565 71.893)"><g transform="translate(0 48.604)"><path class="h" d="M265.541,306.381l-2.608-27.055a4.951,4.951,0,1,0-9.855.95l2.208,22.909-30.721,8.4a3.555,3.555,0,0,0,1.608,6.92l35.561-6.828,4.239-.814Z" transform="translate(-205.81 -270.524)"/><path class="i" d="M330.637,288.015c-.016-.164-.04-.325-.071-.484l-9.8.765a5.011,5.011,0,0,0,.014.668l1.227,12.725,10.015.7Z" transform="translate(-273.515 -279.212)"/><path class="j" d="M8.041,0h0a8.04,8.04,0,0,1,8.04,8.04V19.775a0,0,0,0,1,0,0H0a0,0,0,0,1,0,0V8.041A8.041,8.041,0,0,1,8.041,0Z" transform="translate(43.447 1.47) rotate(-5.246)"/><path class="h" d="M190.2,395.337c-3.265.2-8.93.14-11.189-2.345,0,0-4.975,1.868-6.359,1.953a2.075,2.075,0,0,1-1.954-1.056s8.231-6.193,10.023-6.845,9.942.978,9.942.978l1.329,4.818A1.977,1.977,0,0,1,190.2,395.337Z" transform="translate(-170.694 -347.288)"/></g><g transform="translate(49.09 44.269)"><path class="k" d="M347.672,247.341c-9.328,0-16.521,2.286-21.058,5.31l5.081,25.686-1.05,24.621s18.11,4.26,36.338,0l-2.1-24.626,1.82-26.026A64.025,64.025,0,0,0,347.672,247.341Z" transform="translate(-326.614 -247.341)"/><path class="l" d="M375.855,253.179c0,4.049-4.718,7.332-10.538,7.332s-10.537-3.283-10.537-7.332,4.718-3.7,10.537-3.7S375.855,249.129,375.855,253.179Z" transform="translate(-345.912 -248.8)"/></g><g transform="translate(35.258 48.604)"><path class="l" d="M377.528,306.381l-2.608-27.055a4.951,4.951,0,1,0-9.856.95l2.208,22.909-30.721,8.4a3.555,3.555,0,0,0,1.608,6.92l35.561-6.828,4.239-.814Z" transform="translate(-317.797 -270.524)"/><path class="m" d="M443.718,300.567l-9.882.678.858,8.9,10.056,1.129Z" transform="translate(-386.246 -288.144)"/><path class="j" d="M8.041,0h0a8.04,8.04,0,0,1,8.04,8.04V19.775a0,0,0,0,1,0,0H0a0,0,0,0,1,0,0V8.041A8.041,8.041,0,0,1,8.041,0Z" transform="translate(43.447 1.47) rotate(-5.246)"/><path class="l" d="M302.182,395.337c-3.264.2-8.93.14-11.189-2.345,0,0-4.975,1.868-6.358,1.953a2.076,2.076,0,0,1-1.954-1.056s8.231-6.193,10.023-6.845,9.942.978,9.942.978l1.329,4.818A1.978,1.978,0,0,1,302.182,395.337Z" transform="translate(-282.681 -347.288)"/></g><g transform="translate(47.031 0)"><g transform="translate(2.176 20.142)"><g transform="translate(0 0)"><ellipse class="n" cx="4.632" cy="5.815" rx="4.632" ry="5.815" transform="translate(0 0.505) rotate(-3.123)"/></g><path class="e" d="M334.324,177.208c.175,3.207,2.387,5.693,4.942,5.553s4.483-2.852,4.308-6.058-2.388-5.693-4.942-5.553S334.149,174,334.324,177.208Z" transform="translate(-332.006 -171.007)"/></g><path class="o" d="M336.528,150.473c-6.715,6.539,2.194,13.9,2.194,13.9l-.419-14.091Z" transform="translate(-329.631 -136.568)"/><path class="l" d="M380.347,230.733c-.894-16.389-3.63-7.7-7.577-7.482s-7.555-7.07-6.718,8.262c.313,5.744,3.486,5.073,7.434,4.858S380.661,236.477,380.347,230.733Z" transform="translate(-351.493 -184.858)"/><path class="m" d="M365.961,226.718c.195-8.811,3.382-3.278,6.83-3.466,3.822-.208,6.508-8.364,7.486,6C374.279,231.578,369.414,229.519,365.961,226.718Z" transform="translate(-351.514 -184.858)"/><path class="l" d="M358.816,132.116l-6.36.347a9.064,9.064,0,0,0-8.531,9.516l.717,13.137a12.657,12.657,0,0,0,13.289,11.913h0a12.657,12.657,0,0,0,11.913-13.289L369.17,141.4A9.861,9.861,0,0,0,358.816,132.116Z" transform="translate(-336.406 -124.114)"/><path class="m" d="M410.656,174.845a6.236,6.236,0,0,0,4.818,6.022,12.559,12.559,0,0,0,.093-2.336l-.559-10.247C412.375,168.9,410.482,171.653,410.656,174.845Z" transform="translate(-382.129 -148.905)"/><path class="m" d="M375.7,140.858a9.863,9.863,0,0,0-10.308-8.742l-6.36.347a8.983,8.983,0,0,0-5.525,2.3C360.266,143.36,369.754,142.55,375.7,140.858Z" transform="translate(-342.978 -124.114)"/><path class="o" d="M393.6,167.279l-2.128-.686a1.261,1.261,0,0,1-.811-1.583h0a1.262,1.262,0,0,1,1.583-.811l2.128.686a1.262,1.262,0,0,1,.811,1.583h0A1.262,1.262,0,0,1,393.6,167.279Z" transform="translate(-368.394 -146.065)"/><path class="o" d="M360.022,168.65l-1.957,1.082a1.261,1.261,0,0,1-1.709-.492h0a1.262,1.262,0,0,1,.492-1.71l1.957-1.082a1.262,1.262,0,0,1,1.71.492h0A1.262,1.262,0,0,1,360.022,168.65Z" transform="translate(-344.826 -147.541)"/><path class="m" d="M373.886,202.718s3.321.422,3.369,1.038-1.536,1-1.99.757A7.816,7.816,0,0,1,373.886,202.718Z" transform="translate(-356.944 -172.498)"/><g transform="translate(12.801 22.469)"><path class="p" d="M363.508,181.136a1.388,1.388,0,1,1-1.461-1.31A1.388,1.388,0,0,1,363.508,181.136Z" transform="translate(-360.734 -179.281)"/><path class="p" d="M395.157,179.409a1.388,1.388,0,1,1-1.462-1.31A1.388,1.388,0,0,1,395.157,179.409Z" transform="translate(-382.419 -178.097)"/><path class="q" d="M376.38,179.579s-2.106,6.9-2.157,7.167,1.793,1.325,1.793,1.325" transform="translate(-369.975 -179.113)"/></g><g transform="translate(16.152 31.233)"><path class="p" d="M372.614,208.687a32.27,32.27,0,0,0,6.073-2.554c1.389-.785,2.95.9,2.41,2.621a5.87,5.87,0,0,1-4.327,4.263,5.445,5.445,0,0,1-4.473-.509C370.921,211.585,371.135,209.149,372.614,208.687Z" transform="translate(-371.376 -205.934)"/><path class="r" d="M381.8,217.115a5.87,5.87,0,0,0,4.327-4.263,2.361,2.361,0,0,0,.1-.763,5.96,5.96,0,0,0-3.788.336,5.807,5.807,0,0,0-3.724,4.768s0,.007,0,.011A6.56,6.56,0,0,0,381.8,217.115Z" transform="translate(-376.409 -210.033)"/><path class="s" d="M383.4,216.719c.316.4,1.276.181,2.144-.479s1.314-1.516,1-1.911-1.277-.181-2.144.479S383.088,216.323,383.4,216.719Z" transform="translate(-379.548 -211.55)"/><path class="e" d="M372.617,208.687a32.271,32.271,0,0,0,6.073-2.554,1.621,1.621,0,0,1,2.225.785,11.916,11.916,0,0,1-5.288,3.389,13.362,13.362,0,0,1-4.217.734A2.054,2.054,0,0,1,372.617,208.687Z" transform="translate(-371.378 -205.935)"/></g><path class="o" d="M348.611,122.558c-31.608,7.779-28.449-8.128-28.449-8.128l1.711,2.442s-1.361-7.439,5.61-10.139l.922,4.674s10.945-5.6,21.685,1.064,5.23,22.567,5.23,22.567S350.7,135.246,348.611,122.558Z" transform="translate(-320.074 -106.733)"/><path class="t" d="M353.168,127.616a13.3,13.3,0,0,0-3.042-2.588c-7.539,5.393-18.946,10.722-28.357,3.119a8.79,8.79,0,0,0,.1,1.26l-1.711-2.442a7.533,7.533,0,0,0-.033,2.1C330.632,138.48,344.771,134.258,353.168,127.616Z" transform="translate(-320.075 -119.268)"/><g transform="translate(31.095 20.314)"><path class="l" d="M418.876,175.2c-.254,2.385.834,4.492,2.43,4.705s3.1-1.547,3.351-3.932-.834-4.492-2.43-4.705S419.13,172.818,418.876,175.2Z" transform="translate(-418.839 -171.253)"/><path class="m" d="M422.755,178.552a1.354,1.354,0,0,0-.711.1c0-.04,0-.078.009-.118.168-1.576,1.159-2.739,2.213-2.6s1.773,1.533,1.605,3.108a2.987,2.987,0,0,1-1.5,2.495C424.49,180.016,423.783,178.689,422.755,178.552Z" transform="translate(-421.035 -174.456)"/></g><g transform="translate(30.226 19.722)"><path class="e" d="M425.339,175.28c.175,3.207-1.754,5.919-4.308,6.059s-4.767-2.347-4.942-5.554,1.754-5.919,4.308-6.059S425.164,172.074,425.339,175.28Z" transform="translate(-416.078 -169.612)"/><path class="n" d="M431.694,174.934c.175,3.206-1.754,5.919-4.308,6.058s-4.767-2.347-4.942-5.554,1.754-5.919,4.308-6.058S431.519,171.728,431.694,174.934Z" transform="translate(-420.432 -169.375)"/><path class="u" d="M434.426,181.384a2.376,2.376,0,1,1-2.471-2.777A2.663,2.663,0,0,1,434.426,181.384Z" transform="translate(-425.477 -175.698)"/></g><path class="n" d="M404.822,135.693c1.474-10.3-4.552-16.532-11.981-17.237l2.271-.281s13.675-.051,12.636,17.717Z" transform="translate(-369.931 -114.573)"/><g transform="translate(5.335 31.046)"><path class="v" d="M337.026,205.342c-.257,8.128,8.057,7.453,8.057,7.453" transform="translate(-337.021 -205.342)"/><path class="e" d="M361.561,227.875l-1.36.041a.934.934,0,0,1-.961-.905h0a.934.934,0,0,1,.906-.961l1.36-.041a.934.934,0,0,1,.961.905h0A.933.933,0,0,1,361.561,227.875Z" transform="translate(-352.244 -219.502)"/></g></g></g><g transform="translate(184.633 55.884)"><path class="w" d="M472.284,55.884H449.549a5.488,5.488,0,0,0-5.487,5.488V72.739a5.483,5.483,0,0,0,5.1,5.468v6.161l6.141-6.141h16.985a5.487,5.487,0,0,0,5.487-5.487V61.372A5.488,5.488,0,0,0,472.284,55.884Z" transform="translate(-444.062 -55.884)"/><g transform="translate(6.676 9.296)"><path class="e" d="M467.62,85.41a2.353,2.353,0,1,0,2.353,2.353A2.353,2.353,0,0,0,467.62,85.41Z" transform="translate(-465.267 -85.41)"/><path class="e" d="M492.474,85.41a2.353,2.353,0,1,0,2.353,2.353A2.353,2.353,0,0,0,492.474,85.41Z" transform="translate(-482.296 -85.41)"/><path class="e" d="M517.328,85.41a2.353,2.353,0,1,0,2.353,2.353A2.353,2.353,0,0,0,517.328,85.41Z" transform="translate(-499.325 -85.41)"/></g></g><path class="g" d="M234.022,425.414H69.718a4.3,4.3,0,0,1-4.3-4.3h0a4.3,4.3,0,0,1,4.3-4.3h164.3a4.3,4.3,0,0,1,4.3,4.3h0A4.3,4.3,0,0,1,234.022,425.414Z" transform="translate(0 -247.298)"/><g transform="translate(87.662 135.612)"><path class="e" d="M145.411,340.762l45-.006-9.4-31.64H136.061Z" transform="translate(-136.061 -309.116)"/><rect class="x" width="65.805" height="2.248" transform="translate(75.159 33.882) rotate(180)"/><rect class="y" width="44.993" height="2.248" transform="translate(54.347 33.882) rotate(180)"/><path class="z" d="M278.836,309.116h1.708l9.53,31.736-1.843-.1Z" transform="translate(-233.885 -309.116)"/><path class="x" d="M207.151,356.514c.736,2.261,2.9,3.583,4.838,2.953s2.909-2.974,2.172-5.236-2.9-3.583-4.838-2.953S206.414,354.253,207.151,356.514Z" transform="translate(-184.6 -337.897)"/></g><g transform="translate(200.251 152.585)"><path class="e" d="M0,0H12.535a0,0,0,0,1,0,0V10.668a6.267,6.267,0,0,1-6.267,6.267h0A6.267,6.267,0,0,1,0,10.668V0A0,0,0,0,1,0,0Z"/><g transform="translate(10.368 1.7)"><path class="e" d="M530.665,380.293H526.6V368.425h4.067a3.471,3.471,0,0,1,3.467,3.467v4.934A3.471,3.471,0,0,1,530.665,380.293Zm-2.267-1.8h2.267a1.668,1.668,0,0,0,1.667-1.666v-4.934a1.669,1.669,0,0,0-1.667-1.667H528.4Z" transform="translate(-526.598 -368.425)"/></g><path class="y" d="M496.646,395.641h6.579a2.978,2.978,0,0,0,2.978-2.978v-1.95c-3.413,2.495-8.411-2.987-12.535-4.8v6.751A2.978,2.978,0,0,0,496.646,395.641Z" transform="translate(-493.668 -378.706)"/></g><g transform="translate(190.603 103.411)"><path class="k" d="M505.875,206.839H469.162a1.689,1.689,0,0,0-1.689,1.689v2.423l-4.45,2.233,4.45,2.233v2.423a1.689,1.689,0,0,0,1.689,1.689h36.713a1.689,1.689,0,0,0,1.689-1.689v-9.312A1.689,1.689,0,0,0,505.875,206.839Z" transform="translate(-463.023 -206.839)"/><g transform="translate(7.005 3.798)"><path class="a" d="M487.993,223.481l-1.682.6.049-1.784-1.089-1.415,1.712-.5,1.009-1.473L489,220.375l1.712.5-1.089,1.415.049,1.784Z" transform="translate(-485.272 -218.903)"/><path class="a" d="M511.612,223.481l-1.682.6.049-1.784-1.089-1.415,1.712-.5,1.009-1.473,1.009,1.473,1.712.5-1.089,1.415.049,1.784Z" transform="translate(-501.454 -218.903)"/><path class="a" d="M535.232,223.481l-1.682.6.049-1.784-1.089-1.415,1.712-.5,1.009-1.473,1.009,1.473,1.712.5-1.089,1.415.049,1.784Z" transform="translate(-517.637 -218.903)"/><path class="a" d="M558.851,223.481l-1.682.6.049-1.784-1.089-1.415,1.712-.5,1.009-1.473,1.009,1.473,1.712.5-1.089,1.415.049,1.784Z" transform="translate(-533.82 -218.903)"/><path class="e" d="M582.47,223.481l-1.682.6.049-1.784-1.089-1.415,1.712-.5,1.009-1.473,1.009,1.473,1.712.5L584.1,222.3l.049,1.784Z" transform="translate(-550.003 -218.903)"/></g></g></g></svg>