<svg xmlns="http://www.w3.org/2000/svg" width="24.565" height="29.478" viewBox="0 0 24.565 29.478"><defs><style>.a{fill:#fff;}</style></defs><g transform="translate(-5 -1)"><path class="a" d="M5,20.038v10.44H23.634l1.331-1.035a11.838,11.838,0,0,0,4.6-9.4v-.4l-5.429-2.414a7.975,7.975,0,0,0-5.865-5,6.142,6.142,0,1,0-6.9,0A8,8,0,0,0,5,20.038Zm23.329.4a10.615,10.615,0,0,1-4.119,8.04l-.787.612-.787-.612a10.612,10.612,0,0,1-4.119-8.04l4.907-2.18ZM9.913,7.141a4.913,4.913,0,1,1,4.913,4.913A4.919,4.919,0,0,1,9.913,7.141Zm3.071,6.141h3.685a6.745,6.745,0,0,1,6.117,3.91l-5.5,2.447v.4a11.832,11.832,0,0,0,4.366,9.212H6.228V20.038A6.763,6.763,0,0,1,12.984,13.283Z"/><path class="a" d="M34.071,33H32.842v1.842H31v1.228h1.842v1.842h1.228V36.071h1.842V34.842H34.071Z" transform="translate(-10.033 -12.348)"/></g></svg>