<svg xmlns="http://www.w3.org/2000/svg" width="171" height="57" viewBox="0 0 171 57"><defs><style>.a,.b{fill:#fff;}.a{font-size:47px;font-family:Montserrat-Bold, Montserrat;font-weight:700;}.c{fill:#4949c4;}</style></defs><g transform="translate(-54.276 -35.677)"><text class="a" transform="translate(107.276 80.677)"><tspan x="0" y="0">BICA</tspan></text><g transform="translate(54 42.037)"><ellipse class="b" cx="22.5" cy="23" rx="22.5" ry="23" transform="translate(0.276 -0.36)"/><g transform="translate(11.49 11.929)"><path class="c" d="M1172.005,992.691h.433q7.554,0,15.107,0a6.659,6.659,0,0,1,6.531,5.1,6.488,6.488,0,0,1-.906,5.26.534.534,0,0,0,0,.688,6.447,6.447,0,0,1,.241,6.914,6.354,6.354,0,0,1-5.832,3.434c-5.036.034-10.072.01-15.107.01h-.47Zm7.972,8.027h.531q3.472,0,6.945,0a1.331,1.331,0,1,0-.005-2.652q-4.87-.012-9.74,0a2.524,2.524,0,0,0-.316.037v10.635c3.446,0,6.852.015,10.257-.024a1.62,1.62,0,0,0,.983-.542,1.129,1.129,0,0,0,.121-1.346,1.319,1.319,0,0,0-1.285-.74h-7.491Z" transform="translate(-1172.005 -992.69)"/></g></g></g></svg>