<svg xmlns="http://www.w3.org/2000/svg" width="23.035" height="28.064" viewBox="0 0 23.035 28.064"><defs><style>.a{fill:#fff;}</style></defs><g transform="translate(-77.38 -38.272)"><path class="a" d="M140.5,142.691a.387.387,0,0,0,.387.387h15.1a.389.389,0,1,0,0-.778h-15.1a.387.387,0,0,0-.389.391Z" transform="translate(-59.05 -97.32)"/><path class="a" d="M156,196.15H140.9a.389.389,0,1,0,0,.778H156a.389.389,0,1,0,0-.778Z" transform="translate(-59.06 -147.698)"/><path class="a" d="M155.994,250h-15.1a.389.389,0,1,0,0,.778h15.1a.389.389,0,0,0,0-.778Z" transform="translate(-59.055 -198.076)"/><path class="a" d="M156,303.79H140.9a.389.389,0,0,0,0,.778H156a.389.389,0,1,0,0-.778Z" transform="translate(-59.06 -248.398)"/><path class="a" d="M150.452,357.61H140.9a.389.389,0,0,0,0,.778h9.553a.389.389,0,1,0,0-.778Z" transform="translate(-59.06 -298.748)"/><path class="a" d="M100.415,43.622v-.041a.052.052,0,0,0,0-.022l0-.017a.07.07,0,0,0-.005-.02l-.006-.017a.059.059,0,0,0-.007-.019l-.007-.015c0-.006-.006-.013-.009-.019l-.008-.014-.011-.018-.01-.015-.012-.016-.013-.015-.01-.012-4.823-4.974h0l-.009-.008a.382.382,0,0,0-.2-.1h0a.213.213,0,0,0-.035-.005H77.767a.387.387,0,0,0-.387.387v22.4a.035.035,0,0,0,.005.022.114.114,0,0,0,0,.014.2.2,0,0,0,.008.024l0,.012.011.025a.008.008,0,0,0,.005.009c.005,0,.009.017.014.026l0,.007a.274.274,0,0,0,.02.028h0a.36.36,0,0,0,.033.037L82.3,66.228h0l.014.013.015.014h0a.37.37,0,0,0,.081.05l.012.006.018.006.019.007.015,0,.022.005h.017l.021,0h17.488a.387.387,0,0,0,.387-.387V43.633A.059.059,0,0,0,100.415,43.622Zm-4.822-4,3.515,3.625H95.593ZM82.2,65l-3.515-3.624h1.894A1.625,1.625,0,0,1,82.2,63Zm17.438.571H82.978V63a2.4,2.4,0,0,0-2.4-2.4H78.156V39.048H94.815v4.585a.387.387,0,0,0,.387.387h4.434Z"/></g></svg>