<svg xmlns="http://www.w3.org/2000/svg" width="19.652" height="29.478" viewBox="0 0 19.652 29.478"><defs><style>.a{fill:#fff;}</style></defs><g transform="translate(-9 -1)"><path class="a" d="M9,26.984v10.44H28.652V26.984A7.993,7.993,0,0,0,20.668,19H16.984A7.993,7.993,0,0,0,9,26.984Zm7.984-6.755h3.685a6.763,6.763,0,0,1,6.755,6.755V36.2h-17.2V26.984A6.763,6.763,0,0,1,16.984,20.228Z" transform="translate(0 -6.946)"/><path class="a" d="M27.054,6.527A5.527,5.527,0,1,0,16,6.527v4.3H27.054ZM25.826,9.6h-8.6V6.527a4.3,4.3,0,0,1,8.6,0Z" transform="translate(-2.701)"/></g></svg>