<svg width="170" height="38" viewBox="0 0 170 38" fill="none" xmlns="http://www.w3.org/2000/svg">
<path d="M92.3127 23.5428V25.1091C92.3127 28.5704 91.6995 31.0843 90.473 32.6506C89.2646 34.2169 87.3167 35 84.6293 35C81.9419 35 79.994 34.2169 78.7856 32.6506C77.5952 31.0843 77 28.5414 77 25.0221V23.5138C77 20.3039 77.6042 17.9157 78.8126 16.3494C80.0391 14.7831 81.969 14 84.6023 14C87.2536 14 89.2015 14.7928 90.446 16.3785C91.6905 17.9641 92.3127 20.3522 92.3127 23.5428ZM88.5522 25.0221V23.9489C88.5522 22.0925 88.3358 20.6133 87.9029 19.5111C87.3979 18.2348 86.3157 17.5967 84.6564 17.5967C82.979 17.5967 81.8878 18.2348 81.3828 19.5111C80.968 20.5552 80.7605 22.0345 80.7605 23.9489V25.0221C80.7605 27.5166 81.0852 29.1989 81.7345 30.0691C81.987 30.4365 82.3568 30.7555 82.8437 31.0262C83.3487 31.2776 83.9439 31.4033 84.6293 31.4033C85.3327 31.4033 85.9279 31.2776 86.4149 31.0262C86.9019 30.7749 87.2806 30.4655 87.5512 30.0981C87.8217 29.7307 88.0291 29.2472 88.1734 28.6478C88.4259 27.7003 88.5522 26.4917 88.5522 25.0221Z" fill="white"/>
<path d="M109.994 34.826H105.341L101.31 27.6326L97.3328 34.826H92.6795L99.1454 24.239L93.0853 14.174H97.7116L101.31 20.8453L104.962 14.174H109.561L103.501 24.239L109.994 34.826Z" fill="white"/>
<path d="M124.432 14.174L118.642 26.3564V34.826H114.909V26.3564L109.119 14.174H113.204L116.802 22.4986L120.347 14.174H124.432Z" fill="white"/>
<path d="M137.831 34.826H132.095C129.931 34.826 128.362 34.3812 127.388 33.4917C126.432 32.5829 125.954 31.1133 125.954 29.0829V14.174H129.714V29.0829C129.714 29.895 129.886 30.4558 130.229 30.7652C130.571 31.0746 131.193 31.2293 132.095 31.2293H137.831V34.826Z" fill="white"/>
<path d="M150.487 14.174L144.697 26.3564V34.826H140.964V26.3564L135.174 14.174H139.259L142.857 22.4986L146.401 14.174H150.487Z" fill="white"/>
<path d="M166.239 22.4986L162.776 30.3301C162.271 31.3743 161.64 31.8964 160.883 31.8964C160.143 31.8964 159.521 31.3453 159.016 30.2431L155.499 22.4986V34.826H151.738V14.174H155.445L160.883 26.0953L166.294 14.174H170V34.826H166.239V22.4986Z" fill="white"/>
<path fill-rule="evenodd" clip-rule="evenodd" d="M44.948 34.3389C45.3734 32.5094 44.2309 30.6824 42.3961 30.2581C41.2919 30.0028 40.109 29.2744 38.8831 28.0129C37.6663 26.7607 36.5731 25.1523 35.6422 23.4775C34.7194 21.8174 34.0102 20.1908 33.5305 18.9713C33.4499 18.7662 33.3761 18.5737 33.3093 18.3955C34.6918 15.2275 35.8719 12.6445 37.2423 10.8169C38.5521 9.07012 39.6468 8.5204 40.832 8.5197C41.9687 8.51903 43.1621 9.1008 44.6693 11.0595C46.213 13.0656 47.5888 15.8724 49.1959 19.2182L49.3341 19.5059C50.8306 22.6231 52.5188 25.4591 54.6046 28.3944C56.7658 31.4357 59.6486 34.2863 63.6981 35.3788C65.5162 35.8693 67.3888 34.7973 67.8808 32.9845C68.3727 31.1716 67.2976 29.3044 65.4795 28.8139C63.6177 28.3116 61.9069 26.9068 60.1699 24.4625C58.4241 22.0057 56.9503 19.6175 55.3534 16.2929L55.3202 16.2238C53.8046 13.0682 52.1312 9.58419 50.0807 6.91952C47.9815 4.19142 45.019 1.71629 40.828 1.71875C36.6855 1.72118 33.7999 4.05008 31.7796 6.7445C30.872 7.95497 30.0635 9.33778 29.3245 10.7776C26.7741 5.51363 21.8357 1.94545 16.1618 1.94545C7.87446 1.94545 1.15625 9.55767 1.15625 18.9478C1.15625 28.338 7.87446 35.9502 16.1618 35.9502C22.0252 35.9502 27.1031 32.1397 29.572 26.5851C29.6066 26.6481 29.6414 26.7112 29.6765 26.7744C30.7776 28.7553 32.2067 30.9158 33.9846 32.7454C35.7534 34.5656 38.0377 36.2318 40.8554 36.8833C42.6902 37.3075 44.5225 36.1683 44.948 34.3389ZM16.3892 8.748C21.0351 8.748 24.8014 13.3153 24.8014 18.9494C24.8014 24.5835 21.0351 29.1509 16.3892 29.1509C11.7432 29.1509 7.97695 24.5835 7.97695 18.9494C7.97695 13.3153 11.7432 8.748 16.3892 8.748Z" fill="#DF5556"/>
<path fill-rule="evenodd" clip-rule="evenodd" d="M40.6569 37.742C42.9634 38.2753 45.2703 36.8438 45.8064 34.5385C46.3427 32.2324 44.902 29.933 42.5947 29.3995C41.7111 29.1952 40.6703 28.5875 39.5151 27.3987C38.371 26.2213 37.3214 24.6844 36.4125 23.0493L35.6422 23.4775L36.4125 23.0493C35.5139 21.4327 34.8207 19.8436 34.3507 18.6487L34.121 18.7391L34.3507 18.6487C34.3198 18.5701 34.2899 18.4933 34.2611 18.4186C35.5882 15.3873 36.695 13.0159 37.9474 11.3456C39.1608 9.72739 40.0234 9.4015 40.8325 9.40103C41.5799 9.40059 42.5445 9.74332 43.9708 11.5969C45.447 13.5153 46.783 16.2301 48.4014 19.5997M48.4015 19.5998L48.5396 19.8874C48.5396 19.8874 48.5396 19.8874 48.5396 19.8874C50.0593 23.0527 51.7734 25.9317 53.8862 28.9049C56.1023 32.0235 59.1366 35.061 63.4685 36.2297C65.7541 36.8463 68.1115 35.4994 68.7314 33.2153C69.3514 30.9302 67.9956 28.5799 65.7091 27.963C64.129 27.5367 62.5698 26.3181 60.8883 23.952C59.1683 21.5315 57.7209 19.1862 56.1479 15.9113L56.1147 15.8422L56.1147 15.8422L56.0919 15.7948C54.5918 12.6715 52.8859 9.11982 50.7792 6.38205C48.6045 3.55597 45.4137 0.834728 40.8275 0.837421C36.3022 0.840077 33.1855 3.40042 31.0745 6.21578C30.4429 7.05807 29.8619 7.97389 29.3221 8.92464C26.4842 4.21236 21.6735 1.06412 16.1618 1.06412C7.28747 1.06412 0.274918 9.17762 0.274918 18.9478C0.274918 28.718 7.28747 36.8315 16.1618 36.8315C21.8768 36.8315 26.8365 33.448 29.6273 28.4443C30.6376 30.1087 31.8746 31.8387 33.3526 33.3596C35.1915 35.2521 37.618 37.0394 40.6569 37.742L40.8554 36.8833L40.6569 37.742M44.0895 34.1392C43.7747 35.4929 42.417 36.3398 41.0539 36.0246C38.4573 35.4243 36.3153 33.8792 34.6167 32.1312C32.9114 30.3764 31.5258 28.2873 30.4469 26.3462L29.8194 26.695L30.4469 26.3462C30.4125 26.2845 30.3785 26.2228 30.3447 26.1612L29.4891 24.6016L28.7666 26.2271C26.414 31.5202 21.6188 35.0689 16.1618 35.0689C8.46146 35.0689 2.03758 27.9579 2.03758 18.9478C2.03758 9.93772 8.46146 2.82678 16.1618 2.82678C21.4432 2.82678 26.1028 6.14931 28.5314 11.1619L29.3018 12.752L30.1086 11.18C30.8346 9.7655 31.6174 8.42987 32.4847 7.27323C34.4144 4.69974 37.0689 2.60229 40.8285 2.60008C44.6243 2.59785 47.3584 4.82686 49.3822 7.457C51.3658 10.0347 53.0001 13.4289 54.5258 16.6053L54.559 16.6744L54.559 16.6745C56.1797 20.0488 57.6799 22.4799 59.4515 24.973C61.2441 27.4956 63.1065 29.0865 65.2499 29.6648C66.5996 30.0289 67.394 31.4131 67.0302 32.7537C66.6662 34.0952 65.2783 34.8923 63.9277 34.5279C60.1606 33.5116 57.4294 30.848 55.323 27.8839C53.2642 24.9865 51.602 22.1935 50.1286 19.1245L50.1286 19.1244L49.9904 18.8367L49.9904 18.8366C48.3947 15.5146 46.979 12.6158 45.3678 10.522C43.7798 8.45828 42.3575 7.63747 40.8315 7.63837C39.2701 7.63929 37.9434 8.41285 36.5372 10.2882C35.0939 12.2131 33.8747 14.8964 32.5015 18.043L32.3586 18.3705L32.4841 18.7051C32.5525 18.8874 32.6279 19.0843 32.7104 19.2939C33.1997 20.5379 33.9249 22.2021 34.8719 23.9057C35.8249 25.6202 36.9616 27.3001 38.251 28.6271C39.5476 29.9614 40.8728 30.8105 42.1976 31.1168C43.5598 31.4318 44.4042 32.7864 44.0895 34.1392ZM16.3892 28.2695C12.3814 28.2695 8.85828 24.2634 8.85828 18.9494C8.85828 13.6354 12.3814 9.62933 16.3892 9.62933C20.397 9.62933 23.92 13.6354 23.92 18.9494C23.92 24.2634 20.397 28.2695 16.3892 28.2695ZM7.09562 18.9494C7.09562 24.9036 11.1051 30.0322 16.3892 30.0322C21.6732 30.0322 25.6827 24.9036 25.6827 18.9494C25.6827 12.9952 21.6732 7.86667 16.3892 7.86667C11.1051 7.86667 7.09562 12.9952 7.09562 18.9494Z" fill="#DF5556"/>
<g filter="url(#filter0_f_0_1)">
<path fill-rule="evenodd" clip-rule="evenodd" d="M24.3773 18.1101C23.7991 16.8323 23.6403 16.3901 23.3175 15.6975L23.1895 14.9387C23.5123 15.6314 24.0112 16.7341 24.5903 18.0138C25.1619 19.2769 25.8115 20.7124 26.4467 22.0965C27.0867 23.4907 27.7124 24.8336 28.2304 25.8983C28.4895 26.4308 28.7213 26.8929 28.9142 27.2569C29.1084 27.6232 29.2598 27.8835 29.3588 28.0171L29.1722 28.1587C29.0612 28.009 28.9022 27.7336 28.7086 27.3685C28.5139 27.001 28.2808 26.5361 28.0212 26.0026C27.5019 24.9353 26.8753 23.5906 26.2352 22.1959C25.5984 20.8085 24.9487 19.3726 24.3773 18.1101Z" fill="black" fill-opacity="0.27"/>
</g>
<g filter="url(#filter1_f_0_1)">
<path fill-rule="evenodd" clip-rule="evenodd" d="M32.0734 14.2603C31.0777 12.3462 30.0246 10.2318 29.3588 8.86898L29.5777 8.76939C30.2429 10.1311 31.2951 12.2436 32.2897 14.1555C32.787 15.1115 33.2696 16.0168 33.682 16.7526C34.096 17.4911 34.4352 18.0517 34.6468 18.3239L34.4532 18.464C34.2292 18.1758 33.8818 17.5999 33.4692 16.8637C33.0551 16.1249 32.5713 15.2173 32.0734 14.2603Z" fill="black" fill-opacity="0.27"/>
</g>
<defs>
<filter id="filter0_f_0_1" x="22.1895" y="13.9387" width="8.16931" height="15.22" filterUnits="userSpaceOnUse" color-interpolation-filters="sRGB">
<feFlood flood-opacity="0" result="BackgroundImageFix"/>
<feBlend mode="normal" in="SourceGraphic" in2="BackgroundImageFix" result="shape"/>
<feGaussianBlur stdDeviation="0.5" result="effect1_foregroundBlur_0_1"/>
</filter>
<filter id="filter1_f_0_1" x="28.3588" y="7.76939" width="7.28798" height="11.6946" filterUnits="userSpaceOnUse" color-interpolation-filters="sRGB">
<feFlood flood-opacity="0" result="BackgroundImageFix"/>
<feBlend mode="normal" in="SourceGraphic" in2="BackgroundImageFix" result="shape"/>
<feGaussianBlur stdDeviation="0.5" result="effect1_foregroundBlur_0_1"/>
</filter>
</defs>
</svg>
